<?xml version="1.0" encoding="UTF-8" standalone="no"?>
<svg
   xmlns:dc="http://purl.org/dc/elements/1.1/"
   xmlns:cc="http://creativecommons.org/ns#"
   xmlns:rdf="http://www.w3.org/1999/02/22-rdf-syntax-ns#"
   xmlns:svg="http://www.w3.org/2000/svg"
   xmlns="http://www.w3.org/2000/svg"
   viewBox="0 0 341 353"
   height="353"
   width="341"
   id="svg2128"
   version="1.1">
  <metadata
     id="metadata2134">
    <rdf:RDF>
      <cc:Work
         rdf:about="">
        <dc:format>image/svg+xml</dc:format>
        <dc:type
           rdf:resource="http://purl.org/dc/dcmitype/StillImage" />
        <dc:title></dc:title>
      </cc:Work>
    </rdf:RDF>
  </metadata>
  <defs
     id="defs2132" />
  <g
     id="g2136">
    <path
       id="path2701"
       d="m 261.5,332.30147 c -4.53563,-0.60305 -11.95387,-3.1712 -17.25589,-5.9739 -11.20233,-5.92166 -16.099,-11.23441 -22.81569,-24.75438 -5.42769,-10.92535 -6.50684,-15.68962 -4.43201,-19.56649 0.54803,-1.024 0.72489,-2.56941 0.39302,-3.43426 C 216.625,276.58039 212,276.46758 212,278.44098 c 0,2.25601 -1.93995,2.88654 -2.68412,0.8724 -0.93231,-2.52334 -2.30932,-3.28032 -5.99946,-3.29807 -2.73153,-0.0131 -3.2285,0.37395 -3.5,2.72614 -0.44832,3.88424 -3.78317,4.42685 -3.51332,0.57165 0.17461,-2.4947 -0.13801,-2.8131 -2.7621,-2.8131 -2.57073,0 -3.05163,0.45286 -3.66484,3.45114 -0.74529,3.64403 -3.37108,6.2943 -5.77395,5.82776 -2.31613,-0.44969 -2.50114,-2.7789 -0.22073,-2.7789 2.72053,0 4.70054,-3.59379 3.06547,-5.56392 C 185.14654,275.26672 178.38497,275.61503 176,278 c -1.1,1.1 -2,2.59081 -2,3.31291 0,1.87946 -5.13419,6.47659 -7.5,6.71546 -3.25816,0.32897 -4.5,0.0347 -4.5,-1.06622 0,-0.57082 1.21264,-0.90832 2.69476,-0.75 2.00065,0.21371 3.00765,-0.32649 3.90956,-2.09724 0.66814,-1.3118 1.66053,-2.6618 2.20529,-3 0.54477,-0.3382 1.14797,-1.51491 1.34044,-2.61491 0.31048,-1.77443 -0.27503,-2.03312 -5.19136,-2.29368 l -5.54131,-0.29367 -2.28618,4.0677 C 156.46177,284.72996 145,292.20136 145,289.19183 c 0,-0.4445 1.83596,-2.132 4.07991,-3.75 C 161.04936,276.81123 160.35515,276 141,276 c -16.69918,0 -16.73368,0.009 -16.13881,4.18883 0.0539,0.37886 -0.34748,4.24186 -0.89199,8.58444 -1.77536,14.15873 -7.40038,22.41465 -22.18419,32.55999 C 82.661591,334.45665 66.631696,335.3854 43.755698,324.69538 33.437493,319.87366 25.56232,312.81699 20.936898,304.24823 19.527192,301.63671 17.8672,298.6 17.248029,297.5 c -0.619172,-1.1 -2.976709,-6.14215 -5.23897,-11.20479 -3.6835628,-8.2433 -4.1187166,-10.04541 -4.1659838,-17.25258 -0.049463,-7.54203 0.2208293,-8.59753 4.3009158,-16.79521 2.394532,-4.81108 5.804144,-10.67792 7.576914,-13.03742 1.77277,-2.35949 3.969347,-5.86234 4.881282,-7.7841 2.784145,-5.86715 11.610684,-9.68623 27.400285,-11.8556 4.010491,-0.55101 4.61147,-0.37297 5.5,1.62938 0.645172,1.45394 2.23383,2.48448 4.497528,2.91749 1.925,0.36822 6.425,1.2027 10,1.8544 3.575,0.6517 8.482042,2.05516 10.904538,3.1188 2.422495,1.06364 4.54224,1.79619 4.710543,1.62788 0.168302,-0.1683 -1.000094,-4.36748 -2.596438,-9.33151 -1.596343,-4.96402 -3.397666,-12.14428 -4.002939,-15.95612 -0.605273,-3.81184 -1.531418,-8.84958 -2.0581,-11.19497 -1.427815,-6.35827 -1.157361,-18.84164 0.522159,-24.10144 0.81387,-2.54881 2.582322,-9.42721 3.929893,-15.28532 3.224541,-14.01761 7.699126,-24.56295 12.724359,-29.98775 6.829705,-7.37275 7.506065,-8.1891 11.484165,-13.86114 2.1216,-3.025 4.70796,-6.4 5.74747,-7.5 C 116.13728,100.56708 124,89.89716 124,89.068892 c 0,-0.3911 1.9125,-2.708127 4.25,-5.148949 C 132.66765,79.30702 141,67.683437 141,66.133754 c 0,-0.488875 0.67214,-1.446693 1.49365,-2.128484 0.82151,-0.681791 2.84651,-3.604168 4.5,-6.494171 C 150.33199,51.676282 150.95961,47 148.40437,47 c -0.8776,0 -2.81006,-0.86475 -4.29436,-1.921667 C 139.99584,42.148788 129.83761,37.879471 126.75,37.78224 124.82174,37.72152 124,37.168387 124,35.931153 c 0,-2.205546 1.5864,-2.803277 5.75,-2.166511 3.47017,0.530715 4.24526,-0.693763 1.75,-2.764642 -1.70166,-1.412255 -2.01635,-4 -0.48643,-4 0.55746,0 1.887,0.545465 2.95452,1.212145 3.73357,2.331654 3.43731,-0.351529 -0.44302,-4.012404 -5.15102,-4.859688 -2.54645,-5.583329 3.85511,-1.071089 5.55905,3.918378 7.18531,3.081735 2.80147,-1.44124 -4.20245,-4.335821 -4.1798,-6.051414 0.0684,-5.178541 2.087,0.428817 5.25828,2.693797 8.86212,6.329455 9.40292,9.485953 24.82126,23.732957 35.88788,33.161468 16.13397,13.745781 20.6942,18.459259 30.89971,31.938075 3.73439,4.93215 8.89167,11.351327 11.46063,14.264841 12.31337,13.96485 22.68027,32.48119 27.65377,49.39247 l 2.08664,7.09517 9.19963,1.25035 c 18.28965,2.48578 20.28629,2.87077 25.85631,4.98552 3.718,1.4116 7.02103,3.6278 9.63759,6.46643 5.62294,6.10016 6.50605,8.11893 5.75183,13.14846 -0.88654,5.91185 -4.2383,10.58357 -9.2708,12.92174 -4.91438,2.28329 -5.55956,3.4233 -4.17888,7.38392 0.94275,2.70438 0.6318,3.30203 -4.5422,8.72997 C 286.4994,216.7815 284,219.9813 284,220.6874 c 0,0.70609 2.5875,2.62893 5.75,4.27296 7.19354,3.73957 9.25,5.35517 9.25,7.267 0,0.82878 1.9125,2.74635 4.25,4.26126 2.3375,1.51492 6.53575,5.09532 9.32946,7.95645 5.04009,5.16174 8.45822,12.57117 11.54605,25.02818 4.07038,16.42083 -2.98384,42.29519 -14.00026,51.35185 -11.33964,9.3224 -19.84737,12.24069 -35.05675,12.02507 -5.81268,-0.0824 -11.9185,-0.32933 -13.5685,-0.5487 z m 31.6967,-8.25835 C 299.49883,322.06155 311,314.29219 311,312.01649 c 0,-0.4805 0.61665,-1.49028 1.37033,-2.24396 7.99834,-7.99835 11.93307,-42.52345 5.14322,-45.12896 -0.86451,-0.33174 -1.36982,-1.97433 -1.33709,-4.3464 0.10125,-7.33604 -4.80229,-14.80387 -11.69676,-17.81358 -1.66117,-0.72517 -3.84095,-2.22528 -4.84396,-3.3336 -1.00301,-1.10831 -2.45258,-1.77377 -3.22127,-1.4788 -0.76868,0.29498 -1.664,-0.15787 -1.98958,-1.00633 -0.32558,-0.84846 -1.93469,-1.83756 -3.57579,-2.198 -1.6411,-0.36045 -4.19101,-1.28518 -5.66646,-2.05495 -4.17191,-2.17657 -7.77108,-1.71204 -11.39784,1.47106 -3.18302,2.79365 -15.8078,11.70944 -26.52298,18.73089 -2.881,1.88786 -8.056,6.02765 -11.5,9.19953 -3.444,3.17188 -7.49932,6.54683 -9.01182,7.49989 -5.05301,3.184 -3.5617,4.45203 6,5.10166 4.8125,0.32696 13.96347,1.33261 20.3355,2.23478 11.22518,1.58928 11.61912,1.72938 12.66668,4.50469 0.93238,2.47014 0.80762,3.01081 -0.90637,3.92811 -2.31052,1.23655 -7.4359,-0.1739 -9.23233,-2.54064 -0.79484,-1.04717 -5.65973,-1.91554 -17.0001,-3.03447 -8.73764,-0.86213 -16.12082,-1.3333 -16.40708,-1.04704 -0.28625,0.28625 -0.84912,2.66227 -1.25082,5.28004 -0.65337,4.2579 -0.35147,5.49744 2.86414,11.75959 1.97697,3.85 4.17632,7.59464 4.88744,8.32143 0.71112,0.72678 1.29294,1.73799 1.29294,2.24712 0,1.98105 7.52169,9.10355 13.35758,12.64867 3.37245,2.04865 9.05913,4.76095 12.63707,6.02731 5.78382,2.04711 7.83632,2.25267 18.50535,1.85335 8.3624,-0.31299 14.03,-1.08742 18.6967,-2.55476 z M 85,323.81885 c 9.11308,-2.72759 26.68192,-16.40008 30.41053,-23.6662 2.26054,-4.40522 5.21574,-22.64756 3.80961,-23.5166 -0.40132,-0.24803 -10.08647,-0.7043 -21.522544,-1.01393 C 86.26152,275.31249 76.476166,274.79429 75.952365,274.47056 75.428564,274.14683 75,273.17029 75,272.30047 c 0,-1.41514 2.250134,-1.50576 21.391882,-0.86153 15.999468,0.53847 21.575318,0.42316 22.119558,-0.45745 0.98532,-1.59429 -4.52463,-15.05087 -6.46442,-15.7876 -0.85086,-0.32316 -2.39058,-1.65373 -3.42159,-2.95682 -1.85309,-2.34211 -5.18356,-4.80353 -14.660922,-10.8353 -3.271843,-2.08233 -4.537465,-3.42881 -3.859834,-4.10644 0.677632,-0.67764 -1.387529,-1.7604 -6.298225,-3.30218 C 79.787902,232.73148 76.0725,231.31688 75.55,230.8496 74.2204,229.66052 68,229.78443 68,231 c 0,1.89237 -4.693375,0.99617 -7.524893,-1.43688 -4.082733,-3.50819 -7.037112,-4.00111 -9.459877,-1.57835 -2.273755,2.27376 -4.773215,2.53825 -8.394435,0.88831 -1.360321,-0.6198 -3.64284,-0.83338 -5.072265,-0.47462 C 34.486959,229.16687 27,235.65503 27,237.53977 c 0,0.71887 -1.48142,3.25401 -3.292045,5.63363 -1.810625,2.37963 -5.063482,7.9266 -7.22857,12.3266 -3.374494,6.85782 -3.939583,8.95222 -3.957954,14.66944 -0.01786,5.5579 0.353554,7.06859 2.228569,9.06445 1.2375,1.31726 2.25,3.21394 2.25,4.21486 0,1.00092 1.997184,6.03595 4.438188,11.18895 7.159687,15.11425 15.175242,21.64051 35.539871,28.93655 5.557952,1.99125 7.759484,2.24784 15.5,1.80653 C 77.440126,325.09788 83.075,324.39501 85,323.81885 Z m 70.57006,-52.70549 c -0.30138,-0.48765 -2.07274,-1.17268 -3.93636,-1.5223 -4.90054,-0.91935 -27.96176,-8.58963 -29.0837,-9.67339 -1.5129,-1.46141 -2.55,-1.07102 -2.55,0.95989 0,1.03265 0.675,2.43775 1.5,3.12244 0.825,0.68469 1.5,1.89437 1.5,2.68819 0,0.79381 0.46583,2.31371 1.03518,3.37755 0.95521,1.78482 2.23452,1.93426 16.55902,1.93426 8.77136,0 15.28548,-0.38566 14.97586,-0.88664 z m 32.26227,-1.9609 c 0.30782,-2.17437 0.0865,-2.29473 -3,-1.63169 -7.89649,1.69633 -9.38196,4.75241 -2.08233,4.28402 4.11667,-0.26415 4.79431,-0.6178 5.08233,-2.65233 z m 7.56695,2.01051 C 195.99875,270.19301 193.28671,266 192.05987,266 c -0.95757,0 -2.02966,4.69688 -1.25004,5.4765 0.82736,0.82736 4.0191,0.60931 4.58945,-0.31353 z m 6.47884,-0.0665 c 0.75796,-0.48009 1.0689,-1.37319 0.69098,-1.98469 -0.97321,-1.57468 -5.5691,-1.39186 -5.5691,0.22153 0,2.60151 2.2631,3.41949 4.87812,1.76316 z m 14.84315,-1.93336 c 1.15356,-1.56027 2.24202,-4.59777 2.41879,-6.75 l 0.32141,-3.91313 -3.48074,0.33197 c -1.9144,0.18259 -5.41328,1.17865 -7.77529,2.21348 l -4.29457,1.88151 1.66955,3.28652 c 2.52322,4.96699 3.42311,5.78652 6.35397,5.78652 1.7944,0 3.38752,-0.94414 4.78688,-2.83687 z M 177,263.01153 c 4.125,-1.07484 11.325,-2.92246 16,-4.1058 4.675,-1.18335 10.075,-2.93128 12,-3.88428 1.925,-0.95301 5.03259,-2.02547 6.90576,-2.38325 4.92338,-0.94037 12.66023,-6.50696 19.91155,-14.32616 3.47451,-3.74662 7.36643,-7.93704 8.6487,-9.31204 1.28226,-1.375 3.06453,-3.85 3.96059,-5.5 0.89607,-1.65 2.43999,-4.35 3.43095,-6 3.01757,-5.02443 5.24723,-12.5374 3.84823,-12.96684 -0.66318,-0.20357 -8.63078,-0.62345 -17.70578,-0.93307 -9.075,-0.30961 -19.33075,-1.17379 -22.79055,-1.9204 -6.75385,-1.45745 -7.76345,-1.02313 -6.77514,2.91461 0.90446,3.60367 -1.16072,10.18054 -3.72357,11.85826 -3.39332,2.22136 -23.34867,2.30315 -27.58384,0.11306 -3.35431,-1.73458 -5.21574,-5.14887 -5.35135,-9.81562 -0.0666,-2.29027 -0.52429,-2.75 -2.73812,-2.75 -6.45014,0 -22.00614,-8.21528 -25.76571,-13.60714 -0.97445,-1.39751 -3.42076,-4.34044 -5.43626,-6.53983 -6.64263,-7.2487 -9.10378,-11.59009 -9.6208,-16.97078 -0.43059,-4.48132 -0.27733,-5.04029 1.29743,-4.73192 1.13573,0.22239 2.38442,2.18758 3.4306,5.39905 1.66867,5.12237 7.66113,14.45062 9.28306,14.45062 0.48769,0 1.82434,-2.11966 2.97032,-4.71035 1.58599,-3.58539 1.85665,-5.31688 1.13328,-7.25 C 141.80667,168.64284 139.84398,163 137.96782,157.5 c -1.87617,-5.5 -3.97943,-10.45 -4.67391,-11 -1.41483,-1.12048 -0.65404,-5.5 0.95543,-5.5 2.22476,0 4.52719,4.32606 6.23958,11.72363 0.99005,4.277 2.63506,9.44594 3.65558,11.48653 1.02053,2.04059 1.86147,4.74059 1.86878,6 0.008,1.32943 2.09925,4.59666 4.98672,7.78984 2.7354,3.025 4.97942,5.82594 4.98672,6.22432 0.0488,2.66288 10.90395,4.9399 15.75113,3.30403 1.70035,-0.57386 2.40338,-0.30769 2.92706,1.1082 0.37906,1.0249 1.1292,2.15807 1.66697,2.51815 0.59985,0.40166 0.15874,2.72069 -1.14129,6 -3.31117,8.35238 -3.60551,10.56311 -1.77777,13.35259 1.57563,2.40472 2.01823,2.49271 12.5388,2.49271 15.35739,0 15.4248,-0.10957 12.23844,-19.89602 -1.28237,-7.96316 -5.42881,-9.89493 -14.37892,-6.69894 -5.66063,2.02134 -8.19818,-1.61097 -3.34632,-4.79003 2.93456,-1.9228 6.30662,-1.98211 12.96494,-0.22805 4.4096,1.16166 5.20215,1.81646 7.51141,6.20587 l 2.58166,4.90717 8.98858,2.2121 c 6.07441,1.49491 13.92213,2.43501 24.20579,2.89967 17.05899,0.77079 18.2828,0.42042 18.2828,-5.23421 0,-3.44163 -1.33758,-4.54619 -2.34045,-1.93273 -0.81668,2.12821 -7.13935,3.01328 -10.77324,1.50808 -3.56261,-1.47568 -10.2453,-10.85032 -9.71129,-13.62322 0.51821,-2.69082 5.23174,-2.48204 5.62208,0.24902 0.16341,1.14329 1.60055,3.50579 3.19363,5.25 3.12261,3.41881 8.09838,4.26434 12.19446,2.07218 1.88202,-1.00723 1.99825,-1.69688 1.39035,-8.25 -1.08747,-11.72286 -1.54466,-13.31579 -4.16431,-14.50938 C 247.76122,161.93408 247.11565,159 249.5,159 c 4.28684,0 -2.65828,-18.90269 -12.30838,-33.5 -6.91897,-10.46603 -14.32294,-20.60353 -17.52852,-24 -1.03818,-1.1 -5.07404,-6.230407 -8.96859,-11.400905 C 202.69804,79.482793 196.47293,72.991862 186.62329,65 c -3.72819,-3.025 -8.6016,-7.207941 -10.82979,-9.295424 -2.22819,-2.087484 -5.68076,-4.627099 -7.67238,-5.643591 -1.99161,-1.016491 -4.52006,-2.842121 -5.61876,-4.056955 C 160.60668,43.907981 155.90111,41 154.40506,41 c -0.38185,0 -0.42613,2.871478 -0.0984,6.381062 0.5483,5.871583 0.36024,6.752621 -2.35539,11.034728 C 150.32807,60.975307 149,63.300542 149,63.58298 c 0,0.282438 -3.4875,5.004149 -7.75,10.49269 -4.2625,5.488542 -10.14312,13.454329 -13.06804,17.701749 -2.92493,4.247419 -7.56385,10.115731 -10.30873,13.040701 -2.74487,2.92497 -7.26766,8.70759 -10.05065,12.85026 -2.78298,4.14268 -7.03155,9.75204 -9.44127,12.46526 C 95.971589,132.84686 94,135.52348 94,136.08169 c 0,0.55821 -0.905277,2.88863 -2.011726,5.17872 -1.987878,4.11443 -7.959177,25.89914 -8.425878,30.73959 -0.132573,1.375 -0.577937,3.26521 -0.989697,4.20046 -0.41176,0.93525 0.165874,8.9753 1.283631,17.86678 1.864749,14.83362 2.380297,16.89864 6.253807,25.04955 2.321837,4.88576 4.548115,8.88321 4.947284,8.88321 0.39917,0 0.984046,1.02908 1.299726,2.28685 1.007283,4.01334 21.832103,21.69763 25.564113,21.70887 0.78169,0.002 2.13169,0.60947 3,1.34916 2.1543,1.83517 8.52909,4.2552 21.57874,8.19181 12.9776,3.91488 19.85877,4.24762 30.5,1.47484 z M 98.761659,174.29274 c 1.243911,-0.23919 3.043911,-0.23011 4.000001,0.0202 0.95609,0.25029 -0.0617,0.446 -2.26166,0.4349 -2.2,-0.0111 -2.982253,-0.21589 -1.738341,-0.45508 z M 199.34409,162.75 c -9.31709,-9.6145 -13.28556,-23.40816 -10.32531,-35.88882 1.93884,-8.17433 4.34466,-8.80571 12.62095,-3.31221 3.61977,2.40266 5.53513,4.42138 5.92998,6.25 0.32079,1.48556 2.16792,6.30103 4.10474,10.70103 5.73043,13.01816 5.56221,24.31892 -0.39572,26.58413 -4.66556,1.77384 -6.74873,1.01733 -11.93464,-4.33413 z M 199,146.12244 c 0,-0.48265 -0.675,-1.43775 -1.5,-2.12244 -0.825,-0.68469 -1.5,-2.3487 -1.5,-3.69781 0,-2.16748 0.3782,-2.41506 3.25,-2.12756 2.67433,0.26774 3.30352,-0.0497 3.55215,-1.79185 0.35313,-2.4744 -4.88508,-7.38278 -7.87888,-7.38278 -1.96608,0 -2.57119,3.1019 -2.0058,10.28212 C 193.19761,142.8398 199,149.36508 199,146.12244 Z M 229,259.5 c 0.68469,-0.825 2.04721,-1.5 3.02783,-1.5 1.64379,0 7.20985,-3.89486 12.75745,-8.92704 1.2569,-1.14013 2.91407,-2.07296 3.68261,-2.07296 0.76853,0 1.65386,-0.80824 1.96739,-1.79608 0.31353,-0.98784 2.62011,-2.64148 5.12573,-3.67476 2.50562,-1.03327 4.97568,-2.66346 5.48902,-3.62264 0.51333,-0.95917 2.31748,-2.04797 4.00922,-2.41953 3.49398,-0.76741 4.73017,-2.83088 2.96797,-4.95419 -0.92373,-1.11303 -2.69511,-1.3018 -7.76935,-0.82796 -4.62637,0.43202 -6.37329,0.29093 -5.89903,-0.47643 1.40576,-2.27457 -1.60717,-2.31761 -4.94022,-0.0706 C 245.50274,231.79782 235,244.4424 235,246.51688 c 0,0.74438 -1.7835,2.6201 -3.96333,4.16827 -2.17983,1.54817 -4.47318,4.02519 -5.09632,5.50449 -1.72714,4.10012 0.44962,6.45525 3.05965,3.31036 z m 26.6849,-38.61738 c 1.54831,-0.61455 7.44753,-1.43166 13.10938,-1.81578 l 10.29428,-0.6984 5.95572,-6.41614 c 3.63777,-3.919 5.95572,-7.29888 5.95572,-8.68422 0,-2.676 0.0885,-2.65995 -4.72976,-0.85828 -5.68444,2.12559 -18.81098,3.83756 -24.09103,3.14197 l -4.67921,-0.61643 -2.27909,6.78233 c -1.2535,3.73028 -2.54348,7.56983 -2.86663,8.53233 -0.69066,2.05714 -0.39822,2.11268 3.33062,0.63262 z m 27.97685,-23.51805 c 4.94442,-0.55493 6.20509,-1.17878 9.95024,-4.92393 2.35868,-2.35867 5.32339,-4.43523 6.58825,-4.61457 3.66132,-0.51912 3.4379,-4.18879 -0.58898,-9.67451 -2.1526,-2.93242 -5.01286,-5.43178 -7.32192,-6.39805 -4.67011,-1.9543 -32.53939,-6.91248 -33.44979,-5.95101 -0.36324,0.38362 -0.24506,3.1725 0.26264,6.1975 0.50769,3.025 0.85982,9.67993 0.7825,14.78873 -0.0773,5.1088 0.0295,9.45585 0.23737,9.66012 0.20787,0.20426 1.95294,0.84029 3.87794,1.41339 3.35145,0.99778 7.2066,0.9002 19.66175,-0.49767 z M 144.5573,39.418239 c -2.96413,-2.167426 -4.38241,-1.622443 -1.66564,0.640034 1.31542,1.095454 2.66471,1.718691 2.99843,1.38497 0.33372,-0.333721 -0.26604,-1.244973 -1.33279,-2.025004 z M 63.217779,138.75 c -0.860976,-1.04781 -2.044082,-4.38794 -4.789865,-13.52268 -0.75532,-2.51282 -3.532063,-2.50135 -6.237612,0.0257 -3.671673,3.4295 -9.749514,5.51341 -11.984636,4.10916 C 38.294278,128.16133 36.241603,120.654 36.095997,114.33174 35.946458,107.83875 35.320868,107 30.627544,107 26.228756,107 18.297383,103.41856 16.545457,100.64118 14.956194,98.121671 17.440966,96.203406 19.726371,98.185483 21.994162,100.15228 30.521362,103 34.142955,103 c 1.643298,0 3.157196,0.71803 3.689715,1.75 1.18993,2.30597 3.1972,10.95339 3.634351,15.65696 0.191234,2.0576 0.572568,3.96596 0.847408,4.2408 0.812186,0.81219 6.446783,-2.46875 7.966877,-4.63899 0.771493,-1.10146 2.83321,-2.50133 4.581594,-3.11082 4.316272,-1.50466 5.744157,-0.12883 7.191507,6.92933 0.639789,3.12 1.789279,7.36933 2.554423,9.44296 2.171293,5.88446 1.408984,8.88742 -1.391051,5.47976 z M 262.75979,120.03548 C 261.80267,118.91596 260.34017,118 259.50979,118 258.6794,118 258,117.51045 258,116.9121 c 0,-0.71518 1.37041,-0.85637 4,-0.4121 3.4928,0.59011 4,0.43641 4,-1.2121 0,-1.03835 -0.47491,-2.36281 -1.05536,-2.94326 -3.32547,-3.32547 3.9985,-11.08568 12.47754,-13.220728 5.3663,-1.351249 7.57238,-4.139366 7.59313,-9.596418 0.0193,-5.089373 0.44849,-5.670164 6.23202,-8.434364 2.61103,-1.247924 6.27903,-4.058413 8.15112,-6.24553 2.02452,-2.365188 3.67264,-3.541598 4.06722,-2.903139 1.75766,2.843948 -3.61342,9.10116 -10.75948,12.534606 -3.40813,1.637492 -4.25561,2.590137 -4.46664,5.020933 -0.75027,8.64199 -4.26028,13.5 -9.75403,13.5 -1.42166,0 -3.88448,0.67207 -5.47293,1.49349 -2.94896,1.52497 -3.5225,3.34382 -4.25896,13.50651 -0.30469,4.20457 -3.27656,5.2138 -5.99384,2.03548 z"
       style="fill:#000000" />
  </g>
</svg>
