<?xml version="1.0" encoding="UTF-8" standalone="no"?>
<svg
   xmlns:dc="http://purl.org/dc/elements/1.1/"
   xmlns:cc="http://creativecommons.org/ns#"
   xmlns:rdf="http://www.w3.org/1999/02/22-rdf-syntax-ns#"
   xmlns:svg="http://www.w3.org/2000/svg"
   xmlns="http://www.w3.org/2000/svg"
   xmlns:sodipodi="http://sodipodi.sourceforge.net/DTD/sodipodi-0.dtd"
   xmlns:inkscape="http://www.inkscape.org/namespaces/inkscape"
   inkscape:version="1.0 (4035a4fb49, 2020-05-01)"
   sodipodi:docname="logo_vibra.svg"
   version="1.1"
   viewBox="0 0 2834.65 2834.65"
   data-name="Layer 1"
   id="Layer_1">
  <metadata
     id="metadata21">
    <rdf:RDF>
      <cc:Work
         rdf:about="">
        <dc:format>image/svg+xml</dc:format>
        <dc:type
           rdf:resource="http://purl.org/dc/dcmitype/StillImage" />
        <dc:title>Artboard 1</dc:title>
      </cc:Work>
    </rdf:RDF>
  </metadata>
  <defs
     id="defs19" />
  <sodipodi:namedview
     inkscape:current-layer="Layer_1"
     inkscape:window-maximized="1"
     inkscape:window-y="-9"
     inkscape:window-x="-9"
     inkscape:cy="1417.325"
     inkscape:cx="1417.325"
     inkscape:zoom="0.29703845"
     showgrid="false"
     id="namedview17"
     inkscape:window-height="1013"
     inkscape:window-width="1920"
     inkscape:pageshadow="2"
     inkscape:pageopacity="0"
     guidetolerance="10"
     gridtolerance="10"
     objecttolerance="10"
     borderopacity="1"
     bordercolor="#666666"
     pagecolor="#ffffff"
     inkscape:document-rotation="0" />
  <title
     id="title2">Artboard 1</title>
  <path
     id="path4"
     d="M2187.43,1473.05c-4,39.64-7.09,80.76-12.39,121.58-6,46.56-12.53,93.17-21.65,139.18-6.35,32-17.6,63-26.41,94.46-3,10.64-5.16,21.51-7.75,32.26-11.81,49.06-31.12,95-58.46,137-17.23,26.47-36.38,51.8-56.32,76.27-10.71,13.14-24.71,23.58-37.55,34.86-21.7,19.08-43.62,37.91-65.52,56.77-39.36,33.92-84.32,57.39-133.36,73-40.76,13-81.56,25.87-122.51,38.22-7.34,2.21-15.51,1.61-23.29,2.3-8.67.76-18.09-.41-25.87,2.68-17,6.76-34,6-51.48,4.21-13.36-1.41-18.11,4.92-15.55,18.43,1.45,7.62.8,15.62,1.53,23.41.56,6,1.15,12.19,2.85,17.94,3.7,12.49,8.32,25.23-1.86,36.36-9.54,10.44-31.66,13.48-44.32,6.92-16.22-8.41-32.84-16-36.77-37.79-.91-5-9.62-12-14.64-11.88-4.56.07-10,7.88-13.28,13.37-8.79,14.62-15.07,31.05-25.2,44.53-21.08,28.06-65.62,19.6-78.07-13.84-6.22-16.7-12.11-17.41-24.45-5.1-24.52,24.46-51,46-86.72,51q-42.09,5.92-44.87-37.45c-.94-14.83-8.22-18.86-20.6-10.89-8.08,5.2-15,12.76-23.58,16.54-19,8.37-38.88,4-57.93-.58-4.31-1-9.41-9.88-9.64-15.33-1.41-33.21-2.33-66.48-1.7-99.7.34-17.64-.3-22.59-16.42-28.58-30.22-11.22-57-28-82.66-47.55-15.21-11.59-32.84-19.84-48.89-30.36-35-23-64.73-52.19-93.79-82.37-28.31-29.4-58.53-56.9-87.3-85.86-14.49-14.59-27.53-30.68-41.43-45.9-5.25-5.75-12.08-10.23-16.41-16.56-9.85-14.37-20.26-28.74-27.4-44.53-11.07-24.48-19.82-50.05-29.08-75.34-3-8.25-4.82-17-6.69-25.65-7.31-33.75-16.33-67.26-21.16-101.38-6.48-45.7,2.36-91,8-136.39,6.51-52,26.93-99.83,40.44-149.71,6.69-24.68,14.47-49.06,21.91-73.54,1.54-5.06,3.13-10.28,5.71-14.83,24.51-43.27,48.75-86.71,74.18-129.42,9.64-16.21,22.37-30.51,33.31-46a262.52,262.52,0,0,0,14.59-23.6c22.93-40.93,54.59-73.58,91.37-101.79,10.32-7.92,18.79-18.48,27.54-28.35q22.64-25.57,44.5-51.84,34.61-41.52,68.68-83.48c26.51-32.75,53.93-64.86,78.56-99,19.26-26.71,35.08-56,52-84.41,17.37-29.1,34.55-58.32,51.23-87.83,15.17-26.81,29.59-53.58,37.07-84.46,5.3-21.88,18.61-41.7,27.84-62.68,12.82-29.12,27.65-57.67,37-87.94,8.5-27.58,14.22-56.73,10.66-86.4-.3-2.52-1.15-5.55-2.83-7.22-5.92-5.9-10.73-11-5.42-20.61,5.82-10.51,11-18.9,25.19-19.37,21.94-.72,39.25,3.91,56.72,20.19,15.39,14.36,38.14,20.53,57.54,30.53a136.76,136.76,0,0,1,15.25,9.41c12.2,8.51,24.87,16.48,36.24,26,27.2,22.84,54.42,45.73,80.43,69.92,38.25,35.59,76.13,71.66,112.87,108.85,23.06,23.34,43.8,49.07,65.49,73.8,6.65,7.59,13.1,15.37,19.49,23.19,25,30.61,51,60.51,74.71,92.12,30.13,40.13,58.39,81.73,87.57,122.6,17.28,24.2,35.1,48,52.1,72.41,10.31,14.8,19.84,30.18,29.14,45.66,14.67,24.42,29.77,48.65,42.95,73.89,10.14,19.41,17.75,40.19,26.23,60.48,9.19,22,18.81,43.88,26.94,66.29,11.48,31.6,23.34,63.19,32.2,95.59,14.45,52.9,28.15,106.11,39.17,159.82C2182.25,1402.85,2183.48,1437.2,2187.43,1473.05Zm-78.12,21.26c-2.43-24.73-6.11-45-6.11-65.32,0-59.94-17.46-116.62-31-173.82-10-42-23.72-83.3-38.67-123.82-15.13-41-31.29-82.07-51.62-120.59-22.19-42-49.34-81.42-75-121.53-21-32.93-42.45-65.65-64.77-97.69q-31.69-45.52-65.74-89.36c-23.48-30.25-48-59.69-72.56-89.06-20.29-24.26-40.85-48.31-62.09-71.71-32-35.24-64.11-70.39-97.26-104.48-20.75-21.33-43.37-40.8-65.44-60.77-5.1-4.62-11.4-7.84-17.13-11.74-6.68-4.55-13.27-9.25-20-13.68-16.7-10.91-33.14-22.29-50.37-32.27-7.54-4.38-14.83-1.68-16.39,8.53-8.61,56.37-32.64,107.06-56.23,157.9-6.68,14.4-16.54,27.78-20.63,42.84-11.6,42.7-35.49,78.93-56.46,116.67-11.93,21.45-25.66,41.88-38.91,62.55-17.36,27.11-34.43,54.44-52.79,80.84-15.29,22-31.14,43.82-48.75,63.9-25.85,29.49-45,64.17-72.87,92.19-21.52,21.64-39.56,46.83-59.61,70-21,24.27-42.31,48.2-63.77,72-15.88,17.62-34.15,33.37-47.93,52.5-29.59,41.08-56.83,83.9-85.29,125.83-32.22,47.47-53.23,100.23-70.62,154.61-8.63,27-15.18,54.69-23.76,81.71-18.32,57.71-27.16,116.85-22.56,177.2,4.12,54.07,16.94,106.09,34.58,157.91,17.86,52.44,46.6,94.52,85.71,131.11,17.33,16.21,36,31.22,51.76,48.85,29.7,33.13,63,62.15,97,90.28,22.17,18.34,46.08,34.79,70.44,50.06,16.85,10.56,35.85,17.56,53.78,26.38,3.87,1.9,7.2,4.9,10.94,7.12,7.44,4.39,14.66,9.41,22.58,12.66,9.67,4,20,6.09,30,9.5,25.75,8.85,32.74,21.4,28.48,48.13-.7,4.36,2.38,9.34,3.71,14,4.25-1.37,9.22-1.75,12.61-4.3,9-6.8,17.55-14.37,26-21.94,13-11.61,27.34-9.3,40.39-2.18s19.54,19.79,19.43,35.46c0,6.58-.18,13.46,1.56,19.67,1.84,6.6,7.18,8.09,11.79,2.26,10.1-12.78,20.72-25.32,29.25-39.15,12.1-19.65,39.32-27.64,59-15.56,4.85,3,9.31,6.64,14.23,9.5,9.55,5.56,15.59,3.07,18.56-7.87,1.26-4.65,1.43-9.64,1.83-14.5,1.53-18.29,4.9-21.07,23.25-19.42q13.71,1.23,27.48,1.89c7.93.37,13.68-2.42,14.55-11.56,1.28-13.58,9.64-14.11,19.73-10.61,6.15,2.12,12,6.69,18.17,6.92,20.49.78,41.31,2.17,61.52-.46,44.51-5.79,88.8-13.45,133-21.32,14-2.5,27.62-7.93,41.35-12.24,38.76-12.17,77.51-25.15,111.35-48.2,23.29-15.86,45.08-34.55,65.38-54.27,31.12-30.21,63.68-59.18,85.77-98,21.86-38.4,46-75.48,58.29-118.67,9-31.49,19.09-62.69,26.76-94.51,10.16-42.17,20-84.54,27.1-127.31C2099.78,1582.05,2104.08,1536.06,2109.31,1494.31Z" />
  <path
     id="path10"
     d="M1913.7,1419.53c-2.64,56.36-5.19,100.65-18.9,143.26-3.06,9.5-8.11,18.37-12.62,27.33-5.73,11.41-12.57,22.29-17.63,34-10.28,23.75-33.31,31.89-52.63,43.36-23.61,14-49.3,24.63-74.78,35-10.19,4.12-22.37,2.83-33.4,5.16-54.57,11.53-105.41-2.14-156.14-21.19-30.26-11.37-50.46-35-74.59-54.23-29.84-23.78-45.62-56.35-60.27-89.73-15.23-34.7-27-71.58-20.2-109.66,5.21-29.27,17.23-57.35,27-85.69,3-8.65,9.51-16,12.78-24.6,16.3-42.85,48.22-72.58,86.24-92.12,36.58-18.79,75.78-34.5,117.46-39.65,7.83-1,16.3,1.91,24.27,3.89,31.4,7.78,62.76,15.73,94,24.07,6.19,1.65,12,5,17.74,8.09,22.79,12,48.75,20.53,67.47,37.32,28.85,25.87,54.07,56.85,63.52,96.69C1908.53,1383.87,1911.58,1407.56,1913.7,1419.53Zm-282.26-43.13c-.91-10-1.13-16.23-2.1-22.34-4.66-29.47-23-44.55-52.35-45.17-18.58-.38-30.46,10.83-43.56,21.35-25.29,20.31-23,71.19,4.71,88,19.29,11.74,39.38,18,62.43,11.5,11.78-3.34,19.93-9.7,23.5-20.72C1627.84,1397.38,1629.57,1385,1631.44,1376.4Z" />
  <path
     id="path12"
     d="M911,1564.73c-27-2.85-63.34-9.58-84.12-40.88-27.67-41.66-34.86-89.07-19.17-138.7,14.18-44.89,37.81-83.42,70.52-116.7,10.34-10.54,18-23.87,28.4-34.27,32.44-32.3,70.11-49.32,116.59-37.68,4.18,1,8.84,1.86,13,1.1,14.39-2.65,20.84,5.68,22.65,17.8,2.06,13.82,9.32,23.88,16.55,35.21a179.45,179.45,0,0,1,21.91,50.83c13,49.93,1.56,96.67-22.39,141-5.25,9.71-11.17,19.08-15.81,29.07-6.23,13.42-14.09,24.62-26.76,33-12,7.94-22.48,18.21-33.18,28C977.38,1552.31,949,1564,911,1564.73Zm54.41-240.36c3.45,8.69,5.32,17,9.76,23.59,4.6,6.8,12.32,9,15.5-1.54a354.73,354.73,0,0,0,11.4-48.27c.68-4.33-5.11-13.49-8.53-13.81-5.22-.49-13.39,3.37-16,7.91C972.05,1301.92,969.37,1313.21,965.36,1324.37Z" />
  <path
     id="path14"
     d="M1246.86,1938.22c-27.27-1.63-48-1.26-68.16-4.45-33-5.21-60.49-22.56-82.94-47.08-13-14.19-23.59-30.66-35.12-46.21-5.21-7-5.62-31.55,2-36.15,8.95-5.39,21.74-9.29,31.46-7.18,19.69,4.29,34.7,18.28,45.86,35.32,18.57,28.37,42,45.46,77.62,39.69,20.12-3.27,40.8-3.46,60.64-7.82,10.49-2.3,20.58-9.42,29.35-16.33,19.91-15.67,57-6.65,65.82,17.14,3.64,9.85,2.72,18.37-6.44,26C1330,1922,1286.25,1933.46,1246.86,1938.22Z" />
  <path
     sodipodi:open="true"
     d="M 473.55201,1149.205 A 227.2433,237.34302 0 0 1 647.30684,884.79043"
     sodipodi:arc-type="arc"
     sodipodi:end="4.4848761"
     sodipodi:start="3.0013023"
     sodipodi:ry="237.34302"
     sodipodi:rx="227.2433"
     sodipodi:cy="1116.0172"
     sodipodi:cx="698.56274"
     sodipodi:type="arc"
     id="path871"
     style="opacity:1;fill:none;fill-opacity:1;stroke:#000000;stroke-width:26.435;stroke-linecap:butt;stroke-linejoin:miter;stroke-miterlimit:4;stroke-dasharray:none;stroke-opacity:1" />
  <path
     style="opacity:1;fill:none;fill-opacity:1;stroke:#000000;stroke-width:40.931;stroke-linecap:butt;stroke-linejoin:miter;stroke-miterlimit:4;stroke-dasharray:none;stroke-opacity:1"
     id="path871-0"
     sodipodi:type="arc"
     sodipodi:cx="729.46338"
     sodipodi:cy="1107.7568"
     sodipodi:rx="359.13516"
     sodipodi:ry="360.04343"
     sodipodi:start="3.0013023"
     sodipodi:end="4.4848761"
     sodipodi:arc-type="arc"
     d="M 373.85656,1158.1019 A 359.13516,360.04343 0 0 1 648.45858,756.99159"
     sodipodi:open="true" />
  <path
     transform="matrix(0,-1,-1,0,0,0)"
     style="opacity:1;fill:none;fill-opacity:1;stroke:#000000;stroke-width:26.435;stroke-linecap:butt;stroke-linejoin:miter;stroke-miterlimit:4;stroke-dasharray:none;stroke-opacity:1"
     id="path871-9"
     sodipodi:type="arc"
     sodipodi:cx="-1934.7819"
     sodipodi:cy="-2002.885"
     sodipodi:rx="274.37524"
     sodipodi:ry="237.34302"
     sodipodi:start="3.2423077"
     sodipodi:end="4.6547333"
     sodipodi:arc-type="arc"
     d="m -2207.7667,-2026.7486 a 274.37524,237.34302 0 0 1 257.1743,-213.0851"
     sodipodi:open="true" />
  <path
     transform="matrix(0,-1,-1,0,0,0)"
     sodipodi:open="true"
     d="m -2315.1508,-2033.8037 a 406.26712,360.04343 0 0 1 364.7326,-326.1127"
     sodipodi:arc-type="arc"
     sodipodi:end="4.6140003"
     sodipodi:start="3.2311165"
     sodipodi:ry="360.04343"
     sodipodi:rx="406.26712"
     sodipodi:cy="-2001.6143"
     sodipodi:cx="-1910.5106"
     sodipodi:type="arc"
     id="path871-0-4"
     style="opacity:1;fill:none;fill-opacity:1;stroke:#000000;stroke-width:40.931;stroke-linecap:butt;stroke-linejoin:miter;stroke-miterlimit:4;stroke-dasharray:none;stroke-opacity:1" />
</svg>
