<?xml version="1.0" encoding="UTF-8" standalone="no"?>
<!-- Created with Inkscape (http://www.inkscape.org/) -->

<svg
   xmlns:dc="http://purl.org/dc/elements/1.1/"
   xmlns:cc="http://creativecommons.org/ns#"
   xmlns:rdf="http://www.w3.org/1999/02/22-rdf-syntax-ns#"
   xmlns:svg="http://www.w3.org/2000/svg"
   xmlns="http://www.w3.org/2000/svg"
   version="1.2"
   width="76.467918"
   height="103.07271"
   id="svg2">
  <defs
     id="defs4">
    <clipPath
       id="clipPath3020">
      <path
         d="M 0,2834.65 0,0 l 2834.65,0 0,2834.65"
         id="path3022" />
    </clipPath>
    <clipPath
       id="clipPath3915">
      <path
         d="M 0,528.781 0,0 l 1984.46,0 0,528.781 -1984.46,0 z"
         id="path3917" />
    </clipPath>
  </defs>
  <metadata
     id="metadata7">
    <rdf:RDF>
      <cc:Work
         rdf:about="">
        <dc:format>image/svg+xml</dc:format>
        <dc:type
           rdf:resource="http://purl.org/dc/dcmitype/StillImage" />
        <dc:title></dc:title>
      </cc:Work>
    </rdf:RDF>
  </metadata>
  <g
     transform="translate(-46.217106,-753.25688)"
     id="layer1">
    <g
       id="Logo TODO change font">
      <g
         transform="matrix(0.26949959,0,0,-0.26949959,46.291326,829.65058)"
         id="g3012">
        <g
           transform="scale(0.1,0.1)"
           id="g3014">
          <g
             id="g3016">
            <g
               clip-path="url(#clipPath3020)"
               id="g3018">
              <path
                 d="m 0,883.871 2834.65,0 0,1950.78 -2834.65,0 0,-1950.78 z"
                 id="path3024"
                 style="fill:#231f20;fill-opacity:1;fill-rule:nonzero;stroke:none" />
              <path
                 d="m 2832.18,3.03125 -1.14,749.39075 -127.08,0 c -13.21,-17.652 -4.27,-97.113 -44.51,-112.281 -136.17,30.539 -12.08,46.019 -58.81,112.281 -5.84,-0.332 -61.39,0.039 -67.26,0 6.35,-0.863 30.07,-27.5 -5.46,-58.031 -47.71,-314.102 39.97,-442.129 -4.37,-691.16053 l 308.63,-0.19922"
                 id="path3026"
                 style="fill:#d2103e;fill-opacity:1;fill-rule:nonzero;stroke:none" />
              <path
                 d="m 805.031,520.359 c 51.004,24.043 51.375,77.293 53.739,112.231 -15.446,17.32 -75.907,18.402 -100.129,13.98 -33.563,-28.09 -4.418,-78.25 -24.461,-110.879 13.215,-28.199 48.683,-8.461 70.851,-15.332"
                 id="path3028"
                 style="fill:#d2103e;fill-opacity:1;fill-rule:nonzero;stroke:none" />
              <path
                 d="m 1096.35,148.551 15.1,-4.332 c 13.86,-2.789 32.56,-3.387 47.06,2.711 -3.8,10.039 -8.92,19.55 -15.1,27.261 -16.53,-7.902 -32.29,-16.269 -47.06,-25.64"
                 id="path3030"
                 style="fill:#d2103e;fill-opacity:1;fill-rule:nonzero;stroke:none" />
              <path
                 d="m 1100.33,487.59 c -30.76,81.672 80.35,114.961 123.18,164.801 l 57.5,-32.051 c -6.25,-55.781 -108.13,-66.078 -101.92,-126.531 10.65,-9.008 19.92,-24.2 33.75,-27.118 4.84,-15.031 -7.74,-24.179 -16.85,-33.3 -44.71,-18.032 -67.72,25.738 -95.66,54.199 z m 58.18,-340.66 c 12.09,-30.188 13.52,-67.4612 -0.95,-91.0394 l -148.76,-5.1914 0,19.043 c 26.12,34.3668 55,58.6558 87.55,78.8088 l -29.87,8.418 c -42.5,29.043 57.47,70.691 72.98,82.07 l 40.18,-64.348 c -1.2,-14.511 -9.85,-22.961 -21.13,-27.761 z M 862.629,75.4492 c -32.012,55.2928 5.285,147.4608 14.141,200.2228 7.55,7.508 15.328,17.726 28.312,13.699 8.918,-28.902 -33.516,-47.73 -5.137,-72.699 29.356,8.68 67.918,-17.731 97.367,4.887 -15.394,25.121 -47.449,12.461 -69.218,22.64 l 0,13.723 65.609,3.969 c 10.217,-13.93 56.627,-27.071 46.377,-53.582 C 996.387,146.629 921.684,110.672 862.629,75.4492 z M 810.961,387.32 c 6.789,11.34 20.207,4.641 29.906,6.45 3.528,-27.688 46.695,6.562 30.051,-29.59 l -4.859,0 c -18.293,-9.551 -48.309,0 -55.098,23.14 z m 85.098,-16.281 c 22.25,12.941 53.191,10.902 48.054,-31.898 l -35.968,0 c -6.926,8.621 -17.321,17.191 -12.086,31.898 z m 27.015,301.152 c 6.227,10.051 15.348,29.071 33.383,22.848 -1.512,-15.09 -9.129,-42.969 -33.383,-31.547 l 0,8.699 z m 42.278,-337.382 c 34.601,-7.559 72.008,18.773 97.408,-8.789 -11.41,-24.04 -11.41,-64.129 -51.28,-41.469 -17.777,13.859 -57.781,7.597 -55.023,41.469 l 8.895,8.789 z m 3.812,314.781 c 2.598,28.851 37.236,17.539 56.486,26.422 l 3.92,-12.52 c -18.09,-13.902 -30.933,-44.16 -60.406,-32.73 l 0,18.828 z M 1071.91,430.449 c -21.92,-15.09 -58.94,-9.929 -83.531,-4.89 6.387,9.89 7.871,21.461 8.933,32.621 15.658,12.66 32.258,40.261 60.498,31.519 11.5,-16.25 16.66,-36.558 14.1,-59.25 z m -0.63,228.781 -6.23,-78.679 c -3.12,-12.379 -12.55,-36.93 -34.67,-27.653 -26.79,-6.339 -12.74,26.282 -15.79,38.332 23.63,20.102 30.05,63.45 56.69,68 z m -249.807,-233.671 -19.164,0 c -26.973,9.89 -86.125,23.761 -88.555,55.152 37.293,-9.871 70.543,-28.699 107.719,-41.371 l 0,-13.781 z m 463.507,-81.84 c -35.89,-1.258 -66.82,-53.047 -97.58,-31.539 18.03,50.41 57.71,91.789 74.49,140.961 29.52,66.929 77.65,212.879 57.09,299.781 l -137.76,0 c -44.87,-12.672 -11.65,-128.613 -58.06,-136.25 -12.73,31.707 -8.98,69.488 -45.42,135.418 l -74.42,0 c 5.66,-49.68 -1.98,-52.078 -6.008,-57.051 -25.55,-1.367 -23.003,38.871 -55.144,17.5 -28.168,5.082 -35.789,-40.348 -65.398,-31.547 -10.086,24.059 -38.465,55.328 -69.375,36.629 26.925,-58.09 161.769,-81.969 97.687,-177.5 -12.984,-27.75 -2.633,-67.941 -37.168,-81.941 -60.519,16.402 -116.867,39.07 -177.242,54.191 6.465,-22.672 -10.274,-54.191 -3.93,-76.922 64.305,-8.64 83.57,-75.449 138.594,-95.59 11.695,-8.828 16.781,-18.808 14.352,-32.75 -38.68,-16.437 -79.77,17.653 -115.622,32.75 -9.039,-3.679 -4.101,-12.609 -5.238,-18.808 C 752.16,281.859 860.02,298.41 825.336,216.672 795.82,149.781 802.309,39.0195 700.961,30.0312 691.816,9.96875 716.184,11.4609 724.066,2.51172 c 87.11,-8.83203 177.153,74.39058 250.243,5.03906 24.328,0 55.261,15.32032 74.541,-4.51953 l 218.9,0 C 1309,82.7305 1277.12,133.73 1281.01,206.82 c 4.84,18.532 -51.21,37.379 -93.61,27.2 -7.6,5.121 -2.62,15.222 -3.73,23.902 28.15,32.75 141.13,-16.281 115.45,63.129 0,6.199 0,21.41 -14.14,22.668"
                 id="path3032"
                 style="fill:#d2103e;fill-opacity:1;fill-rule:nonzero;stroke:none" />
              <path
                 d="M 215.219,671.621 C 77.9609,680.441 4.37891,666.359 2.52344,666.879 l 0,-108.77 25.64456,0 c 30.9062,-9.238 51.9297,-9.867 82.973,-9.867 115.117,-11.73 212.066,5.149 326.328,11.379 -12.914,3.82 -25.946,6.961 -37.735,6.188 -19.394,14.64 -31.617,24.152 -27.035,47.363 30.281,32.289 85.766,5.598 121.301,24.84 31.398,-12.071 10.441,-46.293 17.898,-67.481 -3.101,-5.972 -6.554,-5.461 -10.207,-8.761 34.977,0.261 72.247,-0.86 112.434,-4.551 l 0,112.672 c -169.887,10.91 -289.758,-4.899 -398.906,1.73"
                 id="path3034"
                 style="fill:#d2103e;fill-opacity:1;fill-rule:nonzero;stroke:none" />
              <path
                 d="m 1491.52,445.43 c -24.7,-6.34 -56.19,-11.321 -78.67,3.519 11.32,25.383 38.69,10.27 57.7,14.141 6.58,-8.899 20.17,1.211 20.97,-17.66 z m 81.51,-267.77 0,-33.168 c -44.12,-15.262 -85.02,-63.3514 -133.24,-42.16 l 0,30.078 c 19.31,9.02 41.68,-18.121 57.94,24.121 26.43,-3.152 48.09,35.879 75.3,21.129 z m -37.61,452.43 -20.82,-23.328 c -8.15,0 -22.79,24.929 -25.15,34.968 6.51,7.52 42.66,-2.859 45.97,-11.64 z m 1.79,-53.93 c 10.28,-7.551 31.99,-8.148 20.75,-36.449 -12.84,-11.5 -22.45,18.398 -34.5,22.059 l 13.75,14.39 z m 24.65,-306.262 0,-38.476 c -12.36,2.039 -28.75,-6.383 -38.05,6.418 2.52,29.73 25.69,27.672 38.05,32.058 z m 13.94,100.493 -71.52,0 0,26.339 71.52,0 0,-26.339 z M 1616,46.7812 c -16.92,-39.55073 -48.2,-10.7812 -69.81,0 -17.84,7.2305 -32.14,-45.01948 -48.9,-7.1992 -0.82,9.0782 4.03,12.668 5.65,19.8594 39.26,27.0195 80.08,5.2891 113.06,-12.6602 z m -214.26,156.8668 0,13.743 48.99,0 0,-13.743 -48.99,0 z m 83.77,322.793 c -15.33,-11.961 -36.69,-17.5 -54.33,-19.519 l -10.69,35.43 c 20.29,1.757 57.32,11.796 65.02,-15.911 z m -60.55,55 37.63,0 0,-13.711 -37.63,0 0,13.711 z m 231.43,-28.91 0,-42.449 c -19.73,2.289 -43.57,-6.492 -60.75,6.809 8.54,30.82 41.02,28.89 60.75,35.64 z M 1502.94,709.719 C 1558.2,695.992 1616.27,689.402 1674.98,687 l 0,65.461 -245.75,0 c -0.3,-51.832 -39.62,-124.43 -39.62,-124.43 21.57,0.199 42.54,-1.261 61.56,-10.301 l 0,-13.738 c -20.08,4.949 -40.63,7.528 -61.56,8.738 l 0,-212.609 27.13,0 c 1.58,-5.031 6.41,-7.711 5.34,-13.851 l -5.34,-10.161 -27.13,0 0,-25.89 c 9.12,-0.489 18.89,-2.977 27.13,-0.598 0.46,-1.172 0.93,-2.379 1.76,-3.43 12.77,-2.359 21.8,-19.289 37.68,-10.39 l 0,-13.692 -28.58,0 c -5.52,0 -12.44,1.551 -16.74,6.672 -6.69,-2.672 -13.94,-3.801 -21.25,-2.761 l 0,-19.551 c 21.57,8 49.76,-1.098 70.46,-2.09 2.39,-5.137 7.21,-7.699 5.61,-13.988 l -5.61,-9.961 c -21.52,7.812 -48.06,3.679 -70.46,5.949 l 0,-164.508 c 7.73,-1.449 15.49,-3.66 21.57,-5.129 2.27,-6.242 8.76,-10.012 8.76,-17.4803 -8.34,-5.0312 -19.31,-6.2305 -30.33,-4.082 l 0,-91.94923 285.37,0 0,91.94923 c -10.94,-2.1485 -38.05,-3.3906 -46.42,1.5391 0,7.6212 28.46,65.3202 36.29,66.7612 l 10.13,122.899 c -22.45,-2.27 -48.76,1.863 -70.35,-5.949 l -5.55,9.961 c -1.5,6.289 3.31,8.851 5.55,13.988 20.89,0.992 49.07,10.09 70.35,2.09 l 0,19.551 c -11.75,-1.438 -24.15,1.652 -32.55,9.781 -0.85,6.418 3.98,8.89 5.66,13.82 8.18,-2.379 17.87,0.109 26.89,0.598 l 0,25.89 -26.89,0 -5.66,10.161 c -0.85,6.14 3.98,8.82 5.66,13.851 l 26.89,0 0,212.609 c -20.73,-1.21 -41.6,-3.789 -61.46,-8.738 l 0,13.738 c 19.03,9.04 40.18,10.5 61.46,10.301 l 0,41.86 c -50.76,2.808 -101.14,8.121 -148.87,12.121 -12.06,6.418 -29.64,4.988 -37.82,17.66 3.23,8.75 9,10.047 14.65,10.047"
                 id="path3036"
                 style="fill:#d2103e;fill-opacity:1;fill-rule:nonzero;stroke:none" />
              <path
                 d="m 238.07,706.262 c 121.227,0 254.43,11.019 377.352,1.539 l 0,46.199 -614.12512,0 c -0.648442,-19.18 0,-49.219 0,-49.219 76.85152,12.68 172.37512,1.481 236.77312,1.481"
                 id="path3038"
                 style="fill:#d2103e;fill-opacity:1;fill-rule:nonzero;stroke:none" />
              <path
                 d="m 143.809,483.32 c -34.407,0 -71.7699,33.571 -106.2387,44.7 l -17.1992,0 L 3.10547,524.23 2.33594,3.23047 l 613.87506,0 0,527.01953 C 456.02,548.699 316.336,471.141 143.809,483.32"
                 id="path3040"
                 style="fill:#d2103e;fill-opacity:1;fill-rule:nonzero;stroke:none" />
              <path
                 d="m 2367.4,408.91 c -14.01,1.281 -45.62,4.34 -48.27,24.481 -3.24,21.929 -4.49,52.441 44.23,43.511 36.22,-9.351 50.69,-59.453 4.04,-67.992 z m -86.88,-273.621 c -15.28,-17.18 -10.97,-94.1874 -47.96,-54.2695 -39.43,103.7105 13.95,175.1095 22.86,267.2695 23.01,25.133 48.39,34.41 62.82,28.02 3.54,-0.758 22.84,-46.957 26.06,-47.618 4.37,-63.449 -34.08,-66.582 3.01,-171.722 -10.03,-17.188 -55.15,-8.418 -66.79,-21.68 z m -91.71,335.992 c 7.71,10.188 34.74,24.5 49.07,22.039 15.33,-6.281 25.62,-35.351 19.26,-55.519 -1.36,-16.321 -19.26,-12.492 -32.17,-12.492 -18.02,6.3 -41.35,24.621 -36.16,45.972 z m -52.02,39.5 c -5.33,-21.461 -32.04,-46.48 -65.39,-40.152 -16.78,12.691 -11.17,36.723 -15.05,54.301 3.88,12.57 40.83,22.609 56.37,18.761 6.38,-8.769 29.05,-20.332 24.07,-32.91 z m -75.31,105.891 c 7.63,-30.332 -33.99,-35.723 -49.67,-37.391 -17.4,9.27 -39.5,43.16 -27.89,71.578 11.67,11.563 21.31,26.582 42.65,20.762 11.39,-18.762 44.49,-28.289 34.91,-54.949 z m -85.58,-505.371 0,46.75 -35.38,33.429 -14.89,50.161 c -17.34,76.64 2.51,165.629 16.33,194.507 -0.63,-0.539 -0.74,-0.699 -1.33,-0.929 -12.89,3.871 -33.41,-7.528 -41.17,8.691 11.64,19.039 -4.98,48.059 14.24,64.242 14.04,2.629 48.94,1.93 57.92,-8.101 -0.93,-15.641 -1.57,-37.86 -15.75,-53.512 14.74,3.063 30.91,0.481 42.43,-11.09 -3.71,-146.648 10.46,-245.801 22.42,-380.3201 l -44.82,56.1721 z m -139.15,484.258 c -24.69,21.113 -39.93,45.421 -33.78,78.613 15.49,36.308 67.65,24.219 89.25,9.019 16.56,-24.242 46.28,-53 0.7,-65.722 4.55,-58.52 -37.98,-49.297 -56.17,-21.91 z m 616.07,-241.977 c -35.88,87.02 45.94,376.617 -86.31,400.418 -14.46,2.082 -26.66,-4.008 -38.12,-13.539 23.1,-16.492 40.58,-41.109 44.48,-69.09 -30.88,-68 -94.95,15.109 -138.63,-7.629 l 0,-55.332 c -18.09,-15.039 -30.93,-35.23 -56.43,-27.629 -15.54,17.641 -36.09,30.141 -28.45,55.18 15.67,32.769 51.43,20.187 74.56,35.41 -0.58,0.82 -1,1.578 -1.42,2.371 -43.9,10.707 -38.14,79.18 -112.36,79.18 l -141.71,0 c -65.82,-20.281 -146.81,-57.883 -222.64,-0.461 l 14.31,-93.441 9.39,-31.93 -0.26,-27.899 33.41,-29.07 -34.75,-29.691 11.82,-71.891 c 26.2,-7.789 54.43,-9.07 55.7,-33.09 -4.8,-39.219 -34.22,-84.207 -35.32,-124.777 -1.74,-50.203 26.16,-257.4025 25.36,-307.44153 27.09,2.46094 156.69,7.71093 183.19,21.19143 0.12,-1.0117 36.08,-20.13284 36.08,-21.19143 46.03,-4.44922 106.21,-15.87887 91.21,63.96873 l -33.29,212.3398 c -39.54,108.723 33.29,135.82 57.64,137.07 l 19.17,-17.461 c -6.75,-21.578 -10.29,-42.296 -12.17,-62.367 4.82,-8.09 8.78,-16.699 6.18,-30.312 1.6,-12.778 -1.79,-20.321 -6.6,-25.489 7.65,-98.558 54.77,-184.3589 55.64,-278.46828 l 124.12,0.71875 45.16,35.16013 -9.45,87.4184 5.23,82.433 -2.82,153.477 c 19.05,-4.41 37.83,-9.758 59.17,-18 l 8.91,9.863"
                 id="path3042"
                 style="fill:#d2103e;fill-opacity:1;fill-rule:nonzero;stroke:none" />
              <path
                 d="m 2003.99,1584.64 -320.49,0 2.02,-12.16 1.04,-7.7 -1.13,-8.38 -2.07,-12.3 6.15,0.76 c 30.16,2.66 67.7,5.92 128.62,6.08 0,-9.27 0,-324.94 0,-324.94 l 31.46,0.91 31.37,-0.91 0.12,4.89 c 0,0 0,310.55 0,319.98 42.21,-0.15 83.43,-2.09 122.44,-5.99 l 5.94,-0.59 -1.17,9.16 -1,11.33 0.86,10.03 1.21,9.88 -5.37,-0.05"
                 id="path3044"
                 style="fill:#ffffff;fill-opacity:1;fill-rule:nonzero;stroke:none" />
              <path
                 d="m 2025.42,1415.4 c 4.11,23.41 22.61,47.65 50.09,48.69 11.3,0.53 20.67,-2.61 27.89,-9.33 9.65,-8.98 15.44,-24.48 15.88,-42.5 0,0 0.33,-13.44 0.53,-20.89 l -98.65,0 c 1.31,7.35 4.26,24.03 4.26,24.03 z m 138.37,-88.69 -1.07,-10.85 c -3.19,-31.85 -29.06,-75.56 -76.6,-73.02 -45.57,2.16 -65.89,34.67 -65.89,105.42 0,0 0,16.66 0,23.21 8.95,0 163.94,0 163.94,0 l 0.48,4.19 c 0.39,3.35 0.59,6.72 0.59,10.08 0,22.68 -8.83,45.28 -24.98,63.28 -20.46,22.81 -49.71,35.23 -82.33,34.96 -66.62,-1.08 -118.08,-55.27 -122.44,-128.86 -1.99,-36.68 10.22,-70.68 34.36,-95.77 23.8,-24.73 56.52,-38.04 92.15,-37.5 54.07,1.06 98.21,40.62 102.67,92.02 0,0.02 1.08,12.84 1.08,12.84 l -21.96,0"
                 id="path3046"
                 style="fill:#ffffff;fill-opacity:1;fill-rule:nonzero;stroke:none" />
              <path
                 d="m 2339.92,1485.63 c -85.05,-3.03 -130.91,-69.94 -130.91,-131.35 0,-64.11 45.3,-130.77 121.12,-131.33 40.32,-0.48 90.78,14.09 102.09,86.21 l 2.87,17.55 -21.37,0 -4.01,-21.43 c -5.53,-28.11 -26.05,-60.79 -65.65,-60.24 -61.01,0.5 -67.6,55.03 -68.99,106.09 -0.84,32.61 2.98,76.32 25.79,99.31 10.73,10.81 24.98,16.12 42.39,15.83 26.97,-0.48 43.05,-19.06 57.37,-66.23 0.04,-0.13 7.71,-23.1 7.71,-23.1 l 20.65,0 0,91.01 -2.66,1.3 c -30.04,14.69 -63.57,17.01 -86.4,16.38"
                 id="path3048"
                 style="fill:#ffffff;fill-opacity:1;fill-rule:nonzero;stroke:none" />
              <path
                 d="m 2453.98,1561.27 0,-19.37 c 0,0 22.9,0 29.59,0 0,-9.05 0,-285.62 0,-294.67 -6.5,0 -27.63,0 -27.63,0 l 0,-18.8 124.61,0 0,18.8 c 0,0 -30.25,0 -37.5,0 0,8.64 0,99.38 0,99.38 0,72.72 18.95,108.64 57.89,109.8 10.38,0.3 17.86,-1.92 22.86,-6.78 9.51,-9.23 9.75,-27.33 9.75,-46.69 0,-0.54 0,-146.79 0,-155.71 -7.08,0 -34.85,0 -34.85,0 l 0,-18.8 121.96,0 0,18.8 c 0,0 -22.31,0 -28.95,0 0,8.93 0,155.28 0,155.28 0,52.59 -20.61,73.63 -76.09,77.63 -30.08,2.32 -57.87,-14.14 -72.57,-31.62 0,24.73 0,112.75 0,112.75 l -89.07,0"
                 id="path3050"
                 style="fill:#ffffff;fill-opacity:1;fill-rule:nonzero;stroke:none" />
              <path
                 d="m 422.461,2003.27 -111.281,0 0,-317.78 c 0,-14.32 -11.805,-25.28 -25.293,-25.28 l -11.817,0 c -14.316,0 -25.281,10.96 -25.281,25.28 l 0,317.78 -110.449,0 c -14.336,0 -26.133,9.28 -26.133,23.61 l 0,9.27 c 0,14.33 11.797,23.6 25.281,23.6 l 284.133,0 c 14.336,0 26.141,-9.27 26.141,-23.6 l 0,-9.27 c 0,-14.33 -11.805,-23.61 -25.301,-23.61"
                 id="path3052"
                 style="fill:#ffffff;fill-opacity:1;fill-rule:nonzero;stroke:none" />
              <path
                 d="m 782.461,1660.21 -259.68,0 c -13.476,0 -23.601,10.12 -23.601,23.6 l 0,352.34 c 0,14.33 10.965,23.6 24.441,23.6 l 247.031,0 c 14.336,0 25.293,-9.27 25.293,-23.6 l 0,-9.27 c 0,-14.33 -10.957,-23.61 -25.293,-23.61 l -209.082,0 0,-116.32 192.227,0 c 14.328,0 25.293,-9.27 25.293,-23.59 l 0,-9.28 c 0,-14.32 -10.965,-23.6 -25.293,-23.6 l -192.227,0 0,-113.79 220.891,0 c 14.336,0 25.281,-9.28 25.281,-23.61 l 0,-9.27 c 0,-14.33 -10.945,-23.6 -25.281,-23.6"
                 id="path3054"
                 style="fill:#ffffff;fill-opacity:1;fill-rule:nonzero;stroke:none" />
              <path
                 d="m 1134.02,1660.21 -262.204,0 0,374.25 c 0,14.33 10.965,25.29 25.282,25.29 l 11.816,0 c 13.488,0 25.293,-10.96 25.293,-25.29 l 0,-317.77 199.813,0 c 14.33,0 25.29,-9.28 25.29,-23.61 l 0,-9.27 c 0,-14.33 -10.96,-23.6 -25.29,-23.6"
                 id="path3056"
                 style="fill:#ffffff;fill-opacity:1;fill-rule:nonzero;stroke:none" />
              <path
                 d="m 1483.9,1660.21 -259.69,0 c -13.47,0 -23.59,10.12 -23.59,23.6 l 0,352.34 c 0,14.33 10.96,23.6 24.44,23.6 l 247.03,0 c 14.33,0 25.31,-9.27 25.31,-23.6 l 0,-9.27 c 0,-14.33 -10.98,-23.61 -25.31,-23.61 l -209.08,0 0,-116.32 192.23,0 c 14.33,0 25.28,-9.27 25.28,-23.59 l 0,-9.28 c 0,-14.32 -10.95,-23.6 -25.28,-23.6 l -192.23,0 0,-113.79 220.89,0 c 14.34,0 25.28,-9.28 25.28,-23.61 l 0,-9.27 c 0,-14.33 -10.94,-23.6 -25.28,-23.6"
                 id="path3058"
                 style="fill:#ffffff;fill-opacity:1;fill-rule:nonzero;stroke:none" />
              <path
                 d="m 1831.24,1660.21 -165.25,0 c -52.26,0 -92.73,44.67 -92.73,96.09 l 0,209.89 c 0,51.42 43.83,93.56 96.11,93.56 l 151.76,0 c 14.32,0 25.29,-9.27 25.29,-23.6 l 0,-9.27 c 0,-14.33 -10.97,-23.61 -25.29,-23.61 l -129.85,0 c -40.46,0 -55.63,-23.59 -55.63,-54.78 l 0,-179.55 c 0,-39.61 25.28,-52.25 56.47,-52.25 l 139.12,0 c 14.33,0 25.3,-9.28 25.3,-23.61 l 0,-9.27 c 0,-14.33 -10.97,-23.6 -25.3,-23.6"
                 id="path3060"
                 style="fill:#ffffff;fill-opacity:1;fill-rule:nonzero;stroke:none" />
              <path
                 d="m 2178.58,1956.91 c 0,25.29 -21.08,46.36 -46.38,46.36 l -107.06,0 c -26.14,0 -46.38,-21.07 -46.38,-46.36 l 0,-193.87 c 0,-26.13 20.24,-46.35 45.53,-46.35 l 107.91,0 c 25.3,0 46.38,20.22 46.38,46.35 l 0,193.87 z m -31.19,-296.7 -137.43,0 c -52.27,0 -93.58,42.98 -93.58,94.41 l 0,212.41 c 0,51.42 44.68,92.72 96.96,92.72 l 130.67,0 c 52.27,0 96.96,-41.3 96.96,-92.72 l 0,-212.41 c 0,-51.43 -42.16,-94.41 -93.58,-94.41"
                 id="path3062"
                 style="fill:#ffffff;fill-opacity:1;fill-rule:nonzero;stroke:none" />
              <path
                 d="m 2665.88,1660.21 -11.8,0 c -13.49,0 -25.29,10.96 -25.29,25.28 l 0,266.37 -84.31,-118.01 c -7.58,-10.12 -14.33,-18.55 -26.98,-18.55 l -8.43,0 c -12.65,0 -19.39,8.43 -26.98,18.55 l -84.3,118.01 0,-266.37 c 0,-14.32 -11.81,-25.28 -25.3,-25.28 l -11.81,0 c -14.33,0 -25.28,10.96 -25.28,25.28 l 0,350.66 c 0,13.49 9.27,23.6 23.6,23.6 l 15.18,0 c 10.95,0 20.23,-10.11 26.13,-18.55 l 112.98,-159.3 113.81,159.3 c 5.91,8.44 14.33,18.55 25.3,18.55 l 15.17,0 c 14.34,0 23.61,-10.11 23.61,-23.6 l 0,-350.66 c 0,-14.32 -10.96,-25.28 -25.3,-25.28"
                 id="path3064"
                 style="fill:#ffffff;fill-opacity:1;fill-rule:nonzero;stroke:none" />
              <path
                 d="m 670.418,1391.52 c 15.293,0 55.051,-3.57 82.559,1.02 86.183,14.36 130.617,42.35 130.617,103.87 0,61.53 -38.965,83.42 -157.52,83.42 l -109.101,0 0,-347.93 c 8.496,0.5 17.617,1.28 26.718,1.28 8.504,0 17.012,-0.78 26.727,-1.28 l 0,159.62 z m 0,168.46 c 18.352,1 61.77,1.52 88.066,-0.52 48.313,-3.56 69.114,-31.02 69.114,-65.6 0,-45.24 -35.481,-77.29 -96.633,-82.36 -20.789,-1.53 -45.254,-1.53 -60.547,0 l 0,148.48"
                 id="path3066"
                 style="fill:#b0aeaf;fill-opacity:1;fill-rule:nonzero;stroke:none" />
              <path
                 d="m 1052.58,1381.14 -9.86,-3.83 c -22.37,-8.77 -21.72,-7.68 -62.497,-16.44 -48.016,-10.42 -97.352,-16.44 -99.981,-71.25 -1.316,-34.53 34.856,-60.83 75.645,-63.02 40.117,-2.18 80.253,15.35 93.403,48.77 l 0,-42.19 80.26,0 0,9.3 -27.63,0 0,152.91 c 0,40.56 -7.24,78.37 -94.06,82.2 -23.692,1.1 -29.618,-1.09 -46.719,-3.29 -19.735,-2.73 -38.145,-8.76 -51.297,-13.69 l 0,-73.45 11.836,0 14.472,30.69 c 12.5,26.32 23.68,54.81 66.438,50.98 42.76,-3.84 49.99,-27.41 49.99,-52.61 l 0,-35.08 z m 0,-34.53 c 0,-14.25 0.66,-23.01 -1.31,-37.26 -4.6,-31.78 -29.6,-66.87 -71.047,-69.06 -34.864,-2.18 -51.317,25.21 -48.68,50.43 5.918,56.44 27.637,49.32 94.727,70.15 l 26.31,8.21 0,-22.47"
                 id="path3068"
                 style="fill:#b0aeaf;fill-opacity:1;fill-rule:nonzero;stroke:none" />
              <path
                 d="m 1279.79,1233.18 -119.06,0 0,9.3 29.61,0 0,219.22 -30.93,0 0,9.87 76.97,0 0,-49.87 c 3.29,18.09 30.91,51.51 74.33,51.51 12.49,0 23.69,-2.74 36.17,-8.22 l 0,-86.6 -12.48,0 -15.8,40.01 c -11.18,27.96 -19.73,46.04 -36.83,37.82 -44.73,-21.37 -40.79,-72.89 -40.79,-121.11 l 0,-92.63 38.81,0 0,-9.3"
                 id="path3070"
                 style="fill:#b0aeaf;fill-opacity:1;fill-rule:nonzero;stroke:none" />
              <path
                 d="m 1462.93,1526.92 c 0,-15.35 -15.13,-26.31 -32.23,-26.31 -16.45,0 -31.57,12.07 -31.57,25.76 0,13.7 14.47,26.86 30.91,26.86 17.76,0 32.89,-12.07 32.89,-26.31 z m -82.88,-293.74 0,9.3 30.26,0 0,219.22 -28.29,0 0,9.87 79.59,0 0,-229.09 26.97,0 0,-9.3 -108.53,0"
                 id="path3072"
                 style="fill:#b0aeaf;fill-opacity:1;fill-rule:nonzero;stroke:none" />
              <path
                 d="m 1684.87,1415.67 c -12.49,37.27 -24.98,52.07 -59.19,52.07 -29.6,0 -67.1,-9.88 -69.72,-40.02 -1.99,-26.84 31.56,-37.81 61.82,-46.03 51.31,-14.8 111.17,-30.14 109.2,-77.82 -1.32,-45.49 -46.7,-78.92 -108.54,-77.82 -35.52,0.55 -75.64,12.06 -89.45,20.27 l 0,78.37 11.84,0 13.8,-39.45 c 15.14,-44.4 32.24,-44.95 59.2,-47.13 37.49,-3.3 80.26,12.05 83.55,42.74 4.6,37.81 -55.92,47.68 -94.06,59.19 -26.98,8.22 -79.6,23.01 -79.6,67.95 0,52.62 68.4,70.15 104.59,70.15 30.25,0 65.12,-9.86 77.61,-16.44 l 0,-71.79 -12.49,0 -8.56,25.76"
                 id="path3074"
                 style="fill:#b0aeaf;fill-opacity:1;fill-rule:nonzero;stroke:none" />
            </g>
          </g>
        </g>
      </g>
      <text
         x="45.4007"
         y="845.20068"
         id="text3031"
         xml:space="preserve"
         style="font-size:14px;font-style:normal;font-variant:normal;font-weight:normal;font-stretch:normal;line-height:100%;letter-spacing:0px;word-spacing:0px;fill:#000000;fill-opacity:1;stroke:none;font-family:Anonymous Pro;-inkscape-font-specification:Anonymous Pro"><tspan
           x="45.4007"
           y="845.20068"
           id="tspan3033"
           style="font-size:11px;font-style:normal;font-variant:normal;font-weight:normal;font-stretch:normal;text-align:start;line-height:100%;letter-spacing:0.20999999px;writing-mode:lr-tb;text-anchor:start;font-family:Arial;-inkscape-font-specification:Arial">Institut</tspan><tspan
           x="45.4007"
           y="856.20068"
           id="tspan3035"
           style="font-size:11px;font-style:normal;font-variant:normal;font-weight:normal;font-stretch:normal;text-align:start;line-height:100%;letter-spacing:0.20999999px;writing-mode:lr-tb;text-anchor:start;font-family:Arial;-inkscape-font-specification:Arial">Mines-Télécom</tspan></text>
    </g>
    <flowRoot
       id="flowRoot3822"
       xml:space="preserve"
       style="font-size:14px;font-style:normal;font-variant:normal;font-weight:normal;font-stretch:normal;line-height:125%;letter-spacing:0px;word-spacing:0px;fill:#000000;fill-opacity:1;stroke:none;font-family:Anonymous Pro;-inkscape-font-specification:Anonymous Pro"><flowRegion
         id="flowRegion3824"><rect
           width="46.872055"
           height="22.202553"
           x="270.7478"
           y="107.33904"
           id="rect3826" /></flowRegion><flowPara
         id="flowPara3828" /></flowRoot>  </g>
</svg>
